<svg width="24" height="24" viewBox="0 0 24 24" fill="none" xmlns="http://www.w3.org/2000/svg">
<path d="M11.1065 2.94818C15.0545 2.94826 18.2666 6.16026 18.2666 10.1083C18.2666 11.7831 17.6811 13.3913 16.6143 14.6757L20.7754 19.0038C21.1491 19.3925 21.1373 20.012 20.7491 20.3857C20.5663 20.5616 20.325 20.6581 20.0713 20.6581C19.8033 20.6581 19.5531 20.5514 19.3672 20.3583L15.1719 15.997C13.9724 16.8293 12.5738 17.2685 11.1065 17.2685C7.1584 17.2685 3.9464 14.0564 3.94632 10.1083C3.94632 6.16022 7.15835 2.94818 11.1065 2.94818ZM11.1065 4.90326C8.23622 4.90326 5.9014 7.23808 5.9014 10.1083C5.90148 12.9785 8.23627 15.3134 11.1065 15.3134C13.9766 15.3133 16.3115 12.9785 16.3116 10.1083C16.3116 7.23813 13.9767 4.90334 11.1065 4.90326Z" fill="" stroke="" stroke-width="0.1"/>
</svg>
