<svg width="" height="" viewBox="0 0 24 24" fill="none" xmlns="http://www.w3.org/2000/svg">
<path d="M11.8135 4.11574C12.0672 3.9878 12.367 4.00943 12.6055 4.18019L19.4336 9.11867L19.6123 9.26418C20.0101 9.63034 20.2559 10.168 20.2559 10.7329V19.4966C20.2169 19.885 19.871 20.2327 19.4434 20.2329H14.2451C13.8161 20.2328 13.4658 19.8812 13.4658 19.4517V16.2163C13.4658 15.4539 12.8652 14.8522 12.1055 14.8521C11.3457 14.8521 10.7441 15.4539 10.7441 16.2163V19.4517C10.7441 19.8813 10.394 20.2329 9.96484 20.2329H4.83594C4.40679 20.2329 4.05664 19.8813 4.05664 19.4517V10.7329C4.05664 10.0876 4.37739 9.47802 4.87891 9.11867L11.707 4.18019L11.8135 4.11574ZM5.77832 10.3345L5.7793 10.3355C5.6632 10.4228 5.58105 10.566 5.58105 10.6987V18.6704H9.25391V16.2163C9.25391 14.6286 10.5555 13.3237 12.1396 13.3237C13.7236 13.324 15.0244 14.6288 15.0244 16.2163V18.7046H18.6973V10.7329C18.6973 10.6007 18.6164 10.458 18.501 10.3706L12.1387 5.7466L5.77832 10.3345Z" fill="" stroke="" stroke-width="0.2"/>
</svg>
